<?xml version="1.0" encoding="utf-8"?>
<!-- Generator: Adobe Illustrator 19.0.1, SVG Export Plug-In . SVG Version: 6.00 Build 0)  -->
<svg version="1.1" id="Слой_1" xmlns="http://www.w3.org/2000/svg" xmlns:xlink="http://www.w3.org/1999/xlink" x="0px" y="0px"
	 viewBox="0 0 595.3 841.9" style="enable-background:new 0 0 595.3 841.9;" xml:space="preserve">
<style type="text/css">
	.st0{fill:#FFFFFF;}
</style>
<g>
	<path class="st0" d="M527.5,23.1H509V9.4c0-0.8-0.6-1.4-1.4-1.4h-60.1c-0.8,0-1.4,0.6-1.4,1.4v42.9c0,0.8,0.6,1.4,1.4,1.4h18.5
		v13.8c0,0.8,0.6,1.4,1.4,1.4h60.1c0.8,0,1.4-0.6,1.4-1.4V24.6C528.9,23.8,528.3,23.1,527.5,23.1L527.5,23.1z M526.1,31.6h-57.3V26
		h57.3V31.6z M506.1,10.8v5.6h-57.3v-5.6H506.1z M448.9,50.9V19.2h57.3v3.9h-38.8c-0.8,0-1.4,0.6-1.4,1.4v26.3H448.9z M468.8,34.4
		h17.4v31.7h-17.4V34.4z M489,66.1V34.4h37v31.7H489L489,66.1z"/>
	<path class="st0" d="M471.8,30.2c0.4,0,0.7-0.2,1-0.4c0.3-0.3,0.4-0.6,0.4-1c0-0.4-0.2-0.7-0.4-1c-0.3-0.3-0.6-0.4-1-0.4
		c-0.4,0-0.7,0.2-1,0.4c-0.3,0.3-0.4,0.6-0.4,1c0,0.4,0.2,0.7,0.4,1C471,30,471.4,30.2,471.8,30.2z"/>
	<path class="st0" d="M475.3,30.2c0.4,0,0.7-0.2,1-0.4c0.3-0.3,0.4-0.6,0.4-1c0-0.4-0.2-0.7-0.4-1c-0.3-0.3-0.6-0.4-1-0.4
		c-0.4,0-0.7,0.2-1,0.4c-0.3,0.3-0.4,0.6-0.4,1c0,0.4,0.2,0.7,0.4,1C474.6,30,474.9,30.2,475.3,30.2z"/>
	<path class="st0" d="M478.9,30.2c0.4,0,0.7-0.2,1-0.4c0.3-0.3,0.4-0.6,0.4-1c0-0.4-0.2-0.7-0.4-1c-0.3-0.3-0.6-0.4-1-0.4
		c-0.4,0-0.7,0.2-1,0.4c-0.3,0.3-0.4,0.6-0.4,1c0,0.4,0.2,0.7,0.4,1C478.1,30,478.5,30.2,478.9,30.2z"/>
	<path class="st0" d="M472.9,40.2h9.2c0.8,0,1.4-0.6,1.4-1.4s-0.6-1.4-1.4-1.4h-9.2c-0.8,0-1.4,0.6-1.4,1.4S472.1,40.2,472.9,40.2z"
		/>
	<path class="st0" d="M482.1,42.5h-9.2c-0.8,0-1.4,0.6-1.4,1.4s0.6,1.4,1.4,1.4h9.2c0.8,0,1.4-0.6,1.4-1.4S482.8,42.5,482.1,42.5z"
		/>
	<path class="st0" d="M482.1,47.6h-9.2c-0.8,0-1.4,0.6-1.4,1.4s0.6,1.4,1.4,1.4h9.2c0.8,0,1.4-0.6,1.4-1.4S482.8,47.6,482.1,47.6z"
		/>
	<path class="st0" d="M514.4,37.3h-21.6c-0.8,0-1.4,0.6-1.4,1.4s0.6,1.4,1.4,1.4h21.6c0.8,0,1.4-0.6,1.4-1.4S515.2,37.3,514.4,37.3z
		"/>
	<path class="st0" d="M514.4,42.5h-21.6c-0.8,0-1.4,0.6-1.4,1.4s0.6,1.4,1.4,1.4h21.6c0.8,0,1.4-0.6,1.4-1.4S515.2,42.5,514.4,42.5z
		"/>
	<path class="st0" d="M514.4,47.6h-21.6c-0.8,0-1.4,0.6-1.4,1.4s0.6,1.4,1.4,1.4h21.6c0.8,0,1.4-0.6,1.4-1.4S515.2,47.6,514.4,47.6z
		"/>
	<path class="st0" d="M451.8,15c0.4,0,0.7-0.2,1-0.4c0.3-0.3,0.4-0.6,0.4-1c0-0.4-0.2-0.7-0.4-1c-0.3-0.3-0.6-0.4-1-0.4
		c-0.4,0-0.7,0.2-1,0.4c-0.3,0.3-0.4,0.6-0.4,1c0,0.4,0.2,0.7,0.4,1C451.1,14.8,451.5,15,451.8,15z"/>
	<path class="st0" d="M455.4,15c0.4,0,0.7-0.2,1-0.4c0.3-0.3,0.4-0.6,0.4-1c0-0.4-0.2-0.7-0.4-1c-0.3-0.3-0.6-0.4-1-0.4
		c-0.4,0-0.7,0.2-1,0.4c-0.3,0.3-0.4,0.6-0.4,1c0,0.4,0.2,0.7,0.4,1C454.6,14.8,455,15,455.4,15z"/>
	<path class="st0" d="M458.9,15c0.4,0,0.7-0.2,1-0.4c0.3-0.3,0.4-0.6,0.4-1c0-0.4-0.2-0.7-0.4-1c-0.3-0.3-0.6-0.4-1-0.4
		c-0.4,0-0.7,0.2-1,0.4c-0.3,0.3-0.4,0.6-0.4,1c0,0.4,0.2,0.7,0.4,1C458.2,14.8,458.6,15,458.9,15z"/>
	<path class="st0" d="M462.1,22.1h-9.2c-0.8,0-1.4,0.6-1.4,1.4c0,0.8,0.6,1.4,1.4,1.4h9.2c0.8,0,1.4-0.6,1.4-1.4
		C463.6,22.8,462.9,22.1,462.1,22.1z"/>
	<path class="st0" d="M462.1,27.3h-9.2c-0.8,0-1.4,0.6-1.4,1.4s0.6,1.4,1.4,1.4h9.2c0.8,0,1.4-0.6,1.4-1.4S462.9,27.3,462.1,27.3z"
		/>
	<path class="st0" d="M462.1,32.4h-9.2c-0.8,0-1.4,0.6-1.4,1.4s0.6,1.4,1.4,1.4h9.2c0.8,0,1.4-0.6,1.4-1.4S462.9,32.4,462.1,32.4z"
		/>
</g>
</svg>
